<svg id="Capa_1" enable-background="new 0 0 511 511" height="32" viewBox="0 0 511 511" width="32" xmlns="http://www.w3.org/2000/svg"><path d="m312 431v-48h-256v48c0 26.51 21.49 48 48 48h256c-26.51 0-48-21.49-48-48z" fill="#e8ab4c"/><path d="m360 479h-256c-17.77 0-33.28-9.66-41.58-24h256c8.3 14.34 23.81 24 41.58 24z" fill="#d08a1c"/><path d="m456 31h-256c-26.51 0-48 21.49-48 48v40l16 16-16 16v232h160v48c0 26.51 21.49 48 48 48s48-21.49 48-48v-112l-16-16 16-16v-160h32l16-16 16 16h32v-48c0-26.51-21.49-48-48-48z" fill="#e8ab4c"/><path d="m504 127h-32l-16-16-16 16h-32v-48c0-26.51 21.49-48 48-48 26.51 0 48 21.49 48 48z" fill="#d08a1c"/><path d="m240 335.5h16v15h-16z" fill="#fff"/><path d="m304 335.5h16v15h-16z" fill="#fff"/><path d="m72 111h-64v64l112 112h64v-64z" fill="#f8e868"/><path d="m272 336h16v15h-16z"/><path d="m400 283.894-19.106 19.106 19.106 19.106v29.894h-64v15h64v64c0 22.332-18.169 40.5-40.5 40.5-22.332 0-40.5-18.168-40.5-40.5v-55h-160v-65h-15v65h-96v55c0 30.603 25.397 56 56 56h256c30.603 0 55-25.397 55-56v-115.106l-12.894-12.894 12.894-12.894v-67.106h-15zm-296 188.106c-22.331 0-41-18.668-41-41v-40h17v48h15v-48h17v32h15v-32h177v33h-72v15h73.024c1.757 12 7.972 24 17.066 33z"/><path d="m456 24h-256c-30.603 0-56 24.397-56 55v43.106l12.894 12.894-12.894 12.894v25l-68.894-68.894h-75.106v74.106l116.894 116.894h64l37.803 37.553 10.356-10.731-38.053-37.928v-52.894h49v-15h-52.894l-28.106-28.106v-33.787l19.106-19.107-19.106-19.106v-28.894h105v-15h-103.792c3.529-19 20.024-33 39.792-33h218.11c-10.826 10-18.11 24.036-18.11 40v73h-56v15h56v40h15v-72h28.106l12.894-12.894 12.894 12.894h42.106v-56c0-30.603-24.397-55-55-55zm-329 195.894v-42.787l17 17v42.787zm-68.894-4.894h42.787l17 17h-42.787zm5.894-58.106-37.894-37.894h37.894zm15-27.788 33 33v42.787l-33-33zm-64 0 70.894 70.894h-42.788l-28.106-28.106zm108.106 150.894-33-33h42.787l33 33zm52.894-11.106-17-17v-42.787l17 17zm320-148.894h-20.894l-19.106-19.106-19.106 19.106h-21.894v-41c0-22.332 18.168-40.5 40.5-40.5s40.5 18.168 40.5 40.5z"/></svg>